<svg id="normal_拷贝_2" data-name="normal 拷贝 2" xmlns="http://www.w3.org/2000/svg" xmlns:xlink="http://www.w3.org/1999/xlink" width="135" height="50" viewBox="0 0 135 50">
  <metadata><?xpacket begin="﻿" id="W5M0MpCehiHzreSzNTczkc9d"?>
<x:xmpmeta xmlns:x="adobe:ns:meta/" x:xmptk="Adobe XMP Core 5.6-c138 79.159824, 2016/09/14-01:09:01        ">
   <rdf:RDF xmlns:rdf="http://www.w3.org/1999/02/22-rdf-syntax-ns#">
      <rdf:Description rdf:about=""/>
   </rdf:RDF>
</x:xmpmeta>
                                                                                                    
                                                                                                    
                                                                                                    
                                                                                                    
                                                                                                    
                                                                                                    
                                                                                                    
                                                                                                    
                                                                                                    
                                                                                                    
                                                                                                    
                                                                                                    
                                                                                                    
                                                                                                    
                                                                                                    
                                                                                                    
                                                                                                    
                                                                                                    
                                                                                                    
                                                                                                    
                           
<?xpacket end="w"?></metadata>
<defs>
    <style>
      .cls-1 {
        fill: #fff;
      }

      .cls-2, .cls-3, .cls-4 {
        fill-rule: evenodd;
      }

      .cls-2 {
        fill: url(#linear-gradient);
      }

      .cls-3 {
        opacity: 0.5;
        fill: url(#linear-gradient-2);
      }

      .cls-4 {
        fill: #20a0ff;
      }
    </style>
    <linearGradient id="linear-gradient" x1="597" y1="139" x2="597" y2="98" gradientUnits="userSpaceOnUse">
      <stop offset="0" stop-color="#20d2ff"/>
      <stop offset="0.8" stop-color="#20a0ff"/>
      <stop offset="1" stop-color="#20a0ff"/>
    </linearGradient>
    <linearGradient id="linear-gradient-2" x1="702.5" y1="148" x2="702.5" y2="135" gradientUnits="userSpaceOnUse">
      <stop offset="0" stop-color="#20a0ff"/>
      <stop offset="0.003" stop-color="#20a0ff"/>
      <stop offset="1" stop-color="#20a0ff"/>
    </linearGradient>
  </defs>
  <rect id="圆角矩形_1" data-name="圆角矩形 1" class="cls-1" width="135" height="50" rx="5" ry="5"/>
  <path id="渐变填充_1_拷贝" data-name="渐变填充 1 拷贝" class="cls-2" d="M594,98h6v28h-6V98Zm3,41-10-12.994h20Z" transform="translate(-574 -98)"/>
  <path id="矩形_1_拷贝_2" data-name="矩形 1 拷贝 2" class="cls-3" d="M696,148l13-13v13H696Z" transform="translate(-574 -98)"/>
  <path id="Get_it_拷贝" data-name="Get it ! 拷贝" class="cls-4" d="M634.348,129a19.075,19.075,0,0,0,4.276-.539v-6.266h-4.33v1.221h2.72v4.076a11.121,11.121,0,0,1-2.559.323,9.25,9.25,0,0,1-1.288-.081,5.41,5.41,0,0,1-1.145-.3,1.982,1.982,0,0,1-.958-0.629,1.552,1.552,0,0,1-.349-1.005v-5.494q0-2.118,3.668-2.118a20,20,0,0,1,2.031.135,16.293,16.293,0,0,1,1.941.3v-1.347a25.476,25.476,0,0,0-4.007-.287,10.344,10.344,0,0,0-1.727.135,10.212,10.212,0,0,0-1.673.44,2.9,2.9,0,0,0-1.431,1.041,2.856,2.856,0,0,0-.519,1.723v5.512a2.639,2.639,0,0,0,.358,1.364,2.584,2.584,0,0,0,.876.907,5.039,5.039,0,0,0,1.324.548,8.354,8.354,0,0,0,1.333.269,13.105,13.105,0,0,0,1.459.072h0Zm10.467,0a14.732,14.732,0,0,0,3.131-.359V127.4a12.022,12.022,0,0,1-2.917.431,3.706,3.706,0,0,1-1.932-.395,1.41,1.41,0,0,1-.626-1.293v-1.31h5.815V122.91a2.755,2.755,0,0,0-.85-2.3,4.525,4.525,0,0,0-2.764-.665,4.862,4.862,0,0,0-2.926.692,2.68,2.68,0,0,0-.9,2.271v3.429q0,2.657,3.972,2.657h0Zm-2.344-5.225v-1.364a1.153,1.153,0,0,1,.5-1.086,3.292,3.292,0,0,1,1.61-.3,3.225,3.225,0,0,1,1.619.3,1.177,1.177,0,0,1,.474,1.086v1.364h-4.2Zm11.9,5.225a11.568,11.568,0,0,0,1.807-.144v-1.059q-1.056.144-1.288,0.144a3.549,3.549,0,0,1-1.118-.135,0.878,0.878,0,0,1-.537-0.458,2.381,2.381,0,0,1-.152-0.969v-5.189h3.1v-1.059h-3.1v-2.693h-1.628v2.693H649.52v1.059h1.933v5.1a3.918,3.918,0,0,0,.277,1.643,1.6,1.6,0,0,0,.9.825,4.944,4.944,0,0,0,1.735.243h0Zm8.213-10.323h1.61v-1.688h-1.61v1.688Zm0,10.143h1.61v-8.689h-1.61v8.689Zm8.034,0.18a11.588,11.588,0,0,0,1.807-.144v-1.059q-1.056.144-1.289,0.144a3.554,3.554,0,0,1-1.118-.135,0.884,0.884,0,0,1-.537-0.458,2.381,2.381,0,0,1-.152-0.969v-5.189h3.1v-1.059h-3.1v-2.693H667.7v2.693h-1.932v1.059H667.7v5.1a3.918,3.918,0,0,0,.277,1.643,1.6,1.6,0,0,0,.9.825,4.95,4.95,0,0,0,1.736.243h0Zm8.874-3.393h0.895l0.626-8.438h-2.147Zm-0.59,3.213h2.075v-1.939H678.9v1.939Z" transform="translate(-574 -98)"/>
</svg>
