<svg id="hover" xmlns="http://www.w3.org/2000/svg" xmlns:xlink="http://www.w3.org/1999/xlink" width="195" height="50" viewBox="0 0 195 50">
  <metadata><?xpacket begin="﻿" id="W5M0MpCehiHzreSzNTczkc9d"?>
<x:xmpmeta xmlns:x="adobe:ns:meta/" x:xmptk="Adobe XMP Core 5.6-c138 79.159824, 2016/09/14-01:09:01        ">
   <rdf:RDF xmlns:rdf="http://www.w3.org/1999/02/22-rdf-syntax-ns#">
      <rdf:Description rdf:about=""/>
   </rdf:RDF>
</x:xmpmeta>
                                                                                                    
                                                                                                    
                                                                                                    
                                                                                                    
                                                                                                    
                                                                                                    
                                                                                                    
                                                                                                    
                                                                                                    
                                                                                                    
                                                                                                    
                                                                                                    
                                                                                                    
                                                                                                    
                                                                                                    
                                                                                                    
                                                                                                    
                                                                                                    
                                                                                                    
                                                                                                    
                           
<?xpacket end="w"?></metadata>
<defs>
    <style>
      .cls-1 {
        fill: url(#linear-gradient);
      }

      .cls-2 {
        fill: #fff;
      }

      .cls-2, .cls-3, .cls-4 {
        fill-rule: evenodd;
      }

      .cls-3 {
        fill: url(#linear-gradient-2);
      }

      .cls-4 {
        fill: url(#linear-gradient-3);
      }
    </style>
    <linearGradient id="linear-gradient" x1="97.5" y1="50" x2="97.5" gradientUnits="userSpaceOnUse">
      <stop offset="0" stop-color="#f0fbff"/>
      <stop offset="0.801" stop-color="#ebf1f8"/>
      <stop offset="0.803" stop-color="#f9fafc"/>
      <stop offset="1" stop-color="#f9fafc"/>
    </linearGradient>
    <linearGradient id="linear-gradient-2" x1="583" y1="136" x2="583" y2="98" gradientUnits="userSpaceOnUse">
      <stop offset="0" stop-color="#5adeff"/>
      <stop offset="0.874" stop-color="#20a0ff"/>
      <stop offset="0.965" stop-color="#8dceff"/>
      <stop offset="1" stop-color="#79c6ff"/>
    </linearGradient>
    <linearGradient id="linear-gradient-3" x1="670.5" y1="116" x2="670.5" y2="130" gradientUnits="userSpaceOnUse">
      <stop offset="0" stop-color="#20a0ff"/>
      <stop offset="1" stop-color="#38ccfd"/>
    </linearGradient>
  </defs>
  <rect id="矩形_1_拷贝" data-name="矩形 1 拷贝" class="cls-1" width="195" height="50" rx="5" ry="5"/>
  <path id="圆角矩形_1_拷贝_3" data-name="圆角矩形 1 拷贝 3" class="cls-2" d="M561,98H746a5,5,0,0,1,5,5v40a5,5,0,0,1-5,5H561a5,5,0,0,1-5-5V103A5,5,0,0,1,561,98Zm0,1H746a4,4,0,0,1,4,4v40a4,4,0,0,1-4,4H561a4,4,0,0,1-4-4V103A4,4,0,0,1,561,99Z" transform="translate(-556 -98)"/>
  <path id="渐变填充_1" data-name="渐变填充 1" class="cls-3" d="M577,98h12v25H577V98Zm6,38-14-12.994h28Z" transform="translate(-556 -98)"/>
  <path id="Download_拷贝" data-name="Download 拷贝" class="cls-2" d="M629.011,130.806h4.907q5.151,0,5.152-3.468v-5.655q0-3.665-5.171-3.665h-4.888v12.788Zm1.838-1.3V119.338h3.031a8.207,8.207,0,0,1,1.288.089,4.555,4.555,0,0,1,1.061.306,1.733,1.733,0,0,1,.795.729,2.363,2.363,0,0,1,.284,1.2V127.3q0,2.207-3.523,2.207h-2.936Zm14.794,1.5q0.72,0,1.44-.039a5.889,5.889,0,0,0,1.174-.237,2.018,2.018,0,0,0,.872-0.492,3.435,3.435,0,0,0,.738-2.444v-3.31a5.53,5.53,0,0,0-.208-1.6,2.908,2.908,0,0,0-.549-1.024,1.958,1.958,0,0,0-.909-0.532,6.364,6.364,0,0,0-1.071-.207q-0.5-.05-1.487-0.05-0.738,0-1.421.04a5.543,5.543,0,0,0-1.183.246,1.843,1.843,0,0,0-.862.522,2.739,2.739,0,0,0-.55,1.045,5.244,5.244,0,0,0-.208,1.556v3.31a4.609,4.609,0,0,0,.284,1.784,1.811,1.811,0,0,0,.909.955,4.114,4.114,0,0,0,1.213.384,13.5,13.5,0,0,0,1.818.089h0Zm0-1.162c-0.53,0-.916-0.013-1.155-0.04a1.954,1.954,0,0,1-.7-0.217,0.914,0.914,0,0,1-.483-0.522,2.877,2.877,0,0,1-.142-1.014v-3.862a2.972,2.972,0,0,1,.208-1.291,1.044,1.044,0,0,1,.71-0.532,9.607,9.607,0,0,1,3.126,0,1.044,1.044,0,0,1,.71.532,2.969,2.969,0,0,1,.209,1.291v3.862a2.9,2.9,0,0,1-.142,1.014,0.92,0.92,0,0,1-.483.522,1.966,1.966,0,0,1-.7.217q-0.36.041-1.156,0.04h0Zm8.714,0.965h2.027l2.178-7.7,2.217,7.7h2.027l3.011-9.537h-1.742l-2.16,7.843H661.8l-2.236-7.843h-1.913l-2.159,7.843H655.38l-2.235-7.843h-1.876Zm13.165,0h1.7v-6.9a1.733,1.733,0,0,1,.218-0.946,1.254,1.254,0,0,1,.758-0.483,6.2,6.2,0,0,1,1.544-.148,2.106,2.106,0,0,1,1.685.493,1.352,1.352,0,0,1,.228.473,2.684,2.684,0,0,1,.057.611v6.9h1.705v-7a2.715,2.715,0,0,0-.711-2.079,3.626,3.626,0,0,0-2.472-.66q-2.746,0-3.012,1.36v-1.163h-1.7v9.537Zm10.855,0h1.7V117.013h-1.7v13.793Zm8.543,0.2c0.48,0,.959-0.013,1.44-0.039a5.889,5.889,0,0,0,1.174-.237,2.014,2.014,0,0,0,.871-0.492,3.43,3.43,0,0,0,.739-2.444v-3.31a5.53,5.53,0,0,0-.208-1.6,2.908,2.908,0,0,0-.55-1.024,1.953,1.953,0,0,0-.909-0.532,6.373,6.373,0,0,0-1.07-.207q-0.5-.05-1.487-0.05-0.739,0-1.421.04a5.552,5.552,0,0,0-1.184.246,1.853,1.853,0,0,0-.862.522,2.752,2.752,0,0,0-.549,1.045,5.244,5.244,0,0,0-.208,1.556v3.31a4.59,4.59,0,0,0,.284,1.784,1.8,1.8,0,0,0,.909.955,4.118,4.118,0,0,0,1.212.384,13.515,13.515,0,0,0,1.819.089h0Zm0-1.162q-0.8,0-1.156-.04a1.96,1.96,0,0,1-.7-0.217,0.92,0.92,0,0,1-.483-0.522,2.9,2.9,0,0,1-.142-1.014v-3.862a2.969,2.969,0,0,1,.209-1.291,1.042,1.042,0,0,1,.71-0.532,9.607,9.607,0,0,1,3.126,0,1.044,1.044,0,0,1,.71.532,2.972,2.972,0,0,1,.208,1.291v3.862a2.877,2.877,0,0,1-.142,1.014,0.914,0.914,0,0,1-.483.522,1.954,1.954,0,0,1-.7.217q-0.36.041-1.155,0.04h0Zm9.7,1.162q2.557,0,2.765-1.1v0.906h1.648v-6.739a4.721,4.721,0,0,0-.284-1.891,1.631,1.631,0,0,0-1.042-.857,8.206,8.206,0,0,0-2.349-.247q-1.515,0-3.39.178v1.3a23.393,23.393,0,0,1,3.144-.236,5.849,5.849,0,0,1,1.355.118,1.1,1.1,0,0,1,.663.4,1.426,1.426,0,0,1,.2.818v1.517h-2.746a6.2,6.2,0,0,0-2.018.256,1.7,1.7,0,0,0-1,.857,3.915,3.915,0,0,0-.293,1.685,4.456,4.456,0,0,0,.312,1.872,1.746,1.746,0,0,0,1.023.906,6.229,6.229,0,0,0,2.018.256h0Zm-0.057-1.162a2.4,2.4,0,0,1-1.023-.168,0.92,0.92,0,0,1-.474-0.552,3.516,3.516,0,0,1-.132-1.093,4.144,4.144,0,0,1,.113-1.143,0.729,0.729,0,0,1,.474-0.483,3.849,3.849,0,0,1,1.174-.128h2.633v2.6a0.866,0.866,0,0,1-.852.828,7.638,7.638,0,0,1-1.572.138h-0.341Zm10.7,1.162a5.048,5.048,0,0,0,2.254-.414,1.1,1.1,0,0,0,.814-0.906v1.123H712V117.013H710.3v2.857l0.038,2.424H710.3a1.081,1.081,0,0,0-.88-0.906,6,6,0,0,0-2.056-.316,4.944,4.944,0,0,0-2.851.631,2.393,2.393,0,0,0-.862,2.069v4.2a3.855,3.855,0,0,0,.351,1.812,2,2,0,0,0,1.127.936,6.391,6.391,0,0,0,2.141.286h0Zm0.359-1.222a3.438,3.438,0,0,1-1.771-.335,1.253,1.253,0,0,1-.521-1.142v-4.71a1.052,1.052,0,0,1,.474-1.044,5.155,5.155,0,0,1,1.97-.236q2.519,0,2.519,1.28v4.71a1.188,1.188,0,0,1-.625,1.142,4.582,4.582,0,0,1-2.046.335h0Z" transform="translate(-556 -98)"/>
  <path id="渐变填充_2" data-name="渐变填充 2" class="cls-4" d="M629.011,129.806h4.907q5.151,0,5.152-3.468v-5.655q0-3.665-5.171-3.665h-4.888v12.788Zm1.838-1.3V118.338h3.031a8.207,8.207,0,0,1,1.288.089,4.555,4.555,0,0,1,1.061.306,1.733,1.733,0,0,1,.795.729,2.363,2.363,0,0,1,.284,1.2V126.3q0,2.206-3.523,2.207h-2.936Zm14.794,1.5q0.72,0,1.44-.039a5.889,5.889,0,0,0,1.174-.237,2.018,2.018,0,0,0,.872-0.492,3.435,3.435,0,0,0,.738-2.444v-3.31a5.53,5.53,0,0,0-.208-1.6,2.908,2.908,0,0,0-.549-1.024,1.958,1.958,0,0,0-.909-0.532,6.364,6.364,0,0,0-1.071-.207q-0.5-.05-1.487-0.05-0.738,0-1.421.04a5.543,5.543,0,0,0-1.183.246,1.843,1.843,0,0,0-.862.522,2.739,2.739,0,0,0-.55,1.045,5.244,5.244,0,0,0-.208,1.556v3.31a4.609,4.609,0,0,0,.284,1.784,1.811,1.811,0,0,0,.909.955,4.114,4.114,0,0,0,1.213.384,13.5,13.5,0,0,0,1.818.089h0Zm0-1.162c-0.53,0-.916-0.013-1.155-0.04a1.954,1.954,0,0,1-.7-0.217,0.914,0.914,0,0,1-.483-0.522,2.877,2.877,0,0,1-.142-1.014v-3.862a2.972,2.972,0,0,1,.208-1.291,1.044,1.044,0,0,1,.71-0.532,9.607,9.607,0,0,1,3.126,0,1.044,1.044,0,0,1,.71.532,2.969,2.969,0,0,1,.209,1.291v3.862a2.9,2.9,0,0,1-.142,1.014,0.92,0.92,0,0,1-.483.522,1.966,1.966,0,0,1-.7.217q-0.36.041-1.156,0.04h0Zm8.714,0.965h2.027l2.178-7.7,2.217,7.7h2.027l3.011-9.537h-1.742l-2.16,7.843H661.8l-2.236-7.843h-1.913l-2.159,7.843H655.38l-2.235-7.843h-1.876Zm13.165,0h1.7v-6.9a1.733,1.733,0,0,1,.218-0.946,1.254,1.254,0,0,1,.758-0.483,6.2,6.2,0,0,1,1.544-.148,2.106,2.106,0,0,1,1.685.493,1.352,1.352,0,0,1,.228.473,2.684,2.684,0,0,1,.057.611v6.9h1.705v-7a2.715,2.715,0,0,0-.711-2.079,3.626,3.626,0,0,0-2.472-.66q-2.746,0-3.012,1.36v-1.163h-1.7v9.537Zm10.855,0h1.7V116.013h-1.7v13.793Zm8.543,0.2c0.48,0,.959-0.013,1.44-0.039a5.889,5.889,0,0,0,1.174-.237,2.014,2.014,0,0,0,.871-0.492,3.43,3.43,0,0,0,.739-2.444v-3.31a5.53,5.53,0,0,0-.208-1.6,2.908,2.908,0,0,0-.55-1.024,1.953,1.953,0,0,0-.909-0.532,6.373,6.373,0,0,0-1.07-.207q-0.5-.05-1.487-0.05-0.739,0-1.421.04a5.552,5.552,0,0,0-1.184.246,1.853,1.853,0,0,0-.862.522,2.752,2.752,0,0,0-.549,1.045,5.244,5.244,0,0,0-.208,1.556v3.31a4.59,4.59,0,0,0,.284,1.784,1.8,1.8,0,0,0,.909.955,4.118,4.118,0,0,0,1.212.384,13.515,13.515,0,0,0,1.819.089h0Zm0-1.162q-0.8,0-1.156-.04a1.96,1.96,0,0,1-.7-0.217,0.92,0.92,0,0,1-.483-0.522,2.9,2.9,0,0,1-.142-1.014v-3.862a2.969,2.969,0,0,1,.209-1.291,1.042,1.042,0,0,1,.71-0.532,9.607,9.607,0,0,1,3.126,0,1.044,1.044,0,0,1,.71.532,2.972,2.972,0,0,1,.208,1.291v3.862a2.877,2.877,0,0,1-.142,1.014,0.914,0.914,0,0,1-.483.522,1.954,1.954,0,0,1-.7.217q-0.36.041-1.155,0.04h0Zm9.7,1.162q2.557,0,2.765-1.1v0.906h1.648v-6.739a4.721,4.721,0,0,0-.284-1.891,1.631,1.631,0,0,0-1.042-.857,8.206,8.206,0,0,0-2.349-.247q-1.515,0-3.39.178v1.3a23.393,23.393,0,0,1,3.144-.236,5.849,5.849,0,0,1,1.355.118,1.1,1.1,0,0,1,.663.4,1.426,1.426,0,0,1,.2.818v1.517h-2.746a6.2,6.2,0,0,0-2.018.256,1.7,1.7,0,0,0-1,.857,3.915,3.915,0,0,0-.293,1.685,4.456,4.456,0,0,0,.312,1.872,1.746,1.746,0,0,0,1.023.906,6.229,6.229,0,0,0,2.018.256h0Zm-0.057-1.162a2.4,2.4,0,0,1-1.023-.168,0.92,0.92,0,0,1-.474-0.552,3.516,3.516,0,0,1-.132-1.093,4.144,4.144,0,0,1,.113-1.143,0.729,0.729,0,0,1,.474-0.483,3.849,3.849,0,0,1,1.174-.128h2.633v2.6a0.866,0.866,0,0,1-.852.828,7.638,7.638,0,0,1-1.572.138h-0.341Zm10.7,1.162a5.048,5.048,0,0,0,2.254-.414,1.1,1.1,0,0,0,.814-0.906v1.123H712V116.013H710.3v2.857l0.038,2.424H710.3a1.081,1.081,0,0,0-.88-0.906,6,6,0,0,0-2.056-.316,4.944,4.944,0,0,0-2.851.631,2.393,2.393,0,0,0-.862,2.069v4.2a3.855,3.855,0,0,0,.351,1.812,2,2,0,0,0,1.127.936,6.391,6.391,0,0,0,2.141.286h0Zm0.359-1.222a3.438,3.438,0,0,1-1.771-.335,1.253,1.253,0,0,1-.521-1.142v-4.71a1.052,1.052,0,0,1,.474-1.044,5.155,5.155,0,0,1,1.97-.236q2.519,0,2.519,1.28v4.71a1.188,1.188,0,0,1-.625,1.142,4.582,4.582,0,0,1-2.046.335h0Z" transform="translate(-556 -98)"/>
</svg>
